# File created by Blade
# Date/Time:  Thu Sep 25 17:43:48 2014
# Frame Rate: 120.000 fps
#------------------------------------------------------
:FULLY-SPECIFIED
:DEGREES
192
root -33.792586 32.453278 -0.394840 -354.156875 -81.301850 2.173885
Spine -6.594040 2.096087 3.451764
Head -12.751991 1.985881 5.386688
LeftShoulder -7.310159 22.998552 10.052592
LeftArm 30.160800 46.807251 -58.504804
LeftForeArm -3.929539 -0.000000 23.202902
LeftHand -25.143581 -0.000000 -3.346152
LeftHandThumb1 -26.253704 0.000000 33.147579
RightShoulder -17.074030 6.188339 -23.187199
RightArm -19.484746 -42.066170 98.196148
RightForeArm -13.732699 -0.000000 26.272004
RightHand -4.580153 -0.000000 12.493255
RightHandThumb1 -24.326973 -0.000000 -32.862282
LeftUpLeg 5.587078 -1.054385 -1.981926
LeftLeg 31.797972 -0.000000 -0.000000
LeftFoot 19.457818 12.198447 353.132991
LeftToeBase -24.849030 -0.000000 0.000000
RightUpLeg -16.666741 -11.753703 4.074454
RightLeg 4.931450 -0.000000 -0.000000
RightFoot -0.200302 2.012474 -8.247415
RightToeBase 0.036855 -0.000000 -0.000000
193
root -34.021839 32.489034 -0.402136 -354.952841 -80.402803 2.881144
Spine -6.495178 2.084179 3.409677
Head -12.839002 1.984191 5.060531
LeftShoulder -7.494762 23.314795 9.854426
LeftArm 30.680605 46.608986 -57.954339
LeftForeArm -3.315312 -0.000000 23.725718
LeftHand -25.001441 -0.000000 -2.489549
LeftHandThumb1 -26.253704 0.000000 33.147579
RightShoulder -16.988307 6.242512 -23.237097
RightArm -19.291746 -42.930490 98.332263
RightForeArm -13.753740 0.000000 26.575844
RightHand -4.425706 -0.000000 12.800941
RightHandThumb1 -24.326973 -0.000000 -32.862282
LeftUpLeg 5.783298 -0.714765 -1.725902
LeftLeg 31.649700 -0.000000 -0.000000
LeftFoot 20.814618 12.838940 353.537743
LeftToeBase -23.674613 -0.000000 0.000000
RightUpLeg -16.283500 -12.152558 3.931957
RightLeg 5.230934 -0.000000 -0.000000
RightFoot -0.549938 1.093276 -8.425544
RightToeBase -0.437544 -0.000000 0.000000
194
root -34.251583 32.522463 -0.413043 -355.198224 -79.556626 3.048884
Spine -6.431394 2.181377 3.456348
Head -12.822607 1.982679 4.726778
LeftShoulder -7.625670 23.642353 9.622409
LeftArm 31.064282 46.280884 -57.592054
LeftForeArm -2.762246 -0.000000 24.270262
LeftHand -25.105785 -0.000000 -2.113787
LeftHandThumb1 -26.253704 0.000000 33.147579
RightShoulder -17.020639 6.161983 -23.261150
RightArm -18.937560 -43.845508 98.295448
RightForeArm -13.823984 -0.000000 26.952164
RightHand -4.495905 -0.000000 13.183698
RightHandThumb1 -24.326973 -0.000000 -32.862282
LeftUpLeg 6.000725 -0.106355 -1.333649
LeftLeg 31.469634 -0.000000 -0.000000
LeftFoot 21.995030 13.276811 354.029674
LeftToeBase -23.536103 -0.000000 0.000000
RightUpLeg -15.943270 -12.440435 3.857029
RightLeg 5.737465 -0.000000 -0.000000
RightFoot -1.159080 0.457518 -8.763857
RightToeBase -0.337646 -0.000000 0.000000
195
root -34.480524 32.552423 -0.425900 -355.338029 -78.735164 3.076906
Spine -6.335282 2.244243 3.519358
Head -12.787619 2.059238 4.415149
LeftShoulder -7.798139 23.864579 9.350328
LeftArm 31.250104 45.928609 -57.436910
LeftForeArm -1.984214 -0.000000 24.727116
LeftHand -25.091595 0.000000 -0.954564
LeftHandThumb1 -26.253704 0.000000 33.147579
RightShoulder -16.942948 6.076009 -23.248844
RightArm -18.518072 -44.660947 98.184972
RightForeArm -13.772573 0.000000 27.366684
RightHand -4.242357 -0.000000 13.275900
RightHandThumb1 -24.326973 -0.000000 -32.862282
LeftUpLeg 6.326597 0.472445 -0.914506
LeftLeg 31.151384 -0.000000 -0.000000
LeftFoot 23.151096 13.755577 354.296729
LeftToeBase -23.498464 -0.000000 0.000000
RightUpLeg -15.575868 -12.639522 3.806758
RightLeg 6.358421 -0.000000 -0.000000
RightFoot -1.825509 -0.597018 -8.719209
RightToeBase -0.278997 -0.000000 0.000000
196
root -34.704281 32.580996 -0.439720 -355.551887 -77.896384 3.205974
Spine -6.261200 2.307557 3.550422
Head -12.764255 2.039873 4.053361
LeftShoulder -8.023796 24.003147 9.015985
LeftArm 31.443460 45.653703 -57.249947
LeftForeArm -1.628803 -0.000000 25.061020
LeftHand -25.054760 -0.000000 -0.265682
LeftHandThumb1 -26.253704 0.000000 33.147579
RightShoulder -16.890952 6.009539 -23.199024
RightArm -18.109617 -45.554282 98.038384
RightForeArm -13.858075 0.000000 27.804212
RightHand -4.368089 0.000000 13.430625
RightHandThumb1 -24.326973 -0.000000 -32.862282
LeftUpLeg 6.614880 1.047827 -0.490341
LeftLeg 30.824763 -0.000000 -0.000000
LeftFoot 24.086534 14.551980 353.686881
LeftToeBase -22.397995 -0.000000 0.000000
RightUpLeg -15.287422 -12.990154 3.767915
RightLeg 6.988495 -0.000000 -0.000000
RightFoot -2.441015 -1.777003 -8.797453
RightToeBase -0.264676 -0.000000 0.000000
197
root -34.923776 32.605851 -0.454347 -355.730916 -77.018774 3.327903
Spine -6.198112 2.407288 3.623331
Head -12.778705 2.014983 3.549940
LeftShoulder -8.166132 24.435892 8.598288
LeftArm 31.831263 45.061476 -56.993286
LeftForeArm -1.685080 -0.000000 25.399380
LeftHand -25.435635 -0.000000 -1.124015
LeftHandThumb1 -26.253704 0.000000 33.147579
RightShoulder -16.908461 5.994944 -23.268959
RightArm -17.783100 -46.298674 97.992204
RightForeArm -13.982130 -0.000000 28.212544
RightHand -4.275131 -0.000000 13.277699
RightHandThumb1 -24.326973 -0.000000 -32.862282
LeftUpLeg 6.881329 1.630840 -0.070669
LeftLeg 30.474215 -0.000000 -0.000000
LeftFoot 25.174675 15.150286 353.943827
LeftToeBase -20.235456 -0.000000 0.000000
RightUpLeg -15.021789 -13.322889 3.706971
RightLeg 7.582782 -0.000000 -0.000000
RightFoot -3.004501 -2.256102 -8.848672
RightToeBase 0.035544 -0.000000 -0.000000
198
root -35.138695 32.629880 -0.465604 -355.854882 -76.112411 3.374715
Spine -6.126686 2.451285 3.680541
Head -12.729373 2.061816 3.226906
LeftShoulder -8.373504 24.508868 8.181431
LeftArm 31.954444 44.704131 -56.970024
LeftForeArm -1.652025 -0.000000 25.484780
LeftHand -25.653019 -0.000000 -1.099622
LeftHandThumb1 -26.253704 0.000000 33.147579
RightShoulder -16.808571 6.020638 -23.234508
RightArm -17.429393 -46.944391 97.792804
RightForeArm -14.407226 -0.000000 28.633281
RightHand -4.244363 0.000000 13.675352
RightHandThumb1 -24.326973 -0.000000 -32.862282
LeftUpLeg 7.232144 2.122491 0.354049
LeftLeg 29.923669 -0.000000 -0.000000
LeftFoot 26.956843 15.912335 354.759791
LeftToeBase -22.675992 -0.000000 0.000000
RightUpLeg -14.777305 -13.689181 3.665481
RightLeg 8.189912 -0.000000 -0.000000
RightFoot -3.514132 -2.850415 -8.985555
RightToeBase -0.344361 -0.000000 0.000000
199
root -35.342524 32.655347 -0.476065 -356.184139 -75.115934 3.672490
Spine -6.077589 2.483552 3.620012
Head -12.719893 2.059651 2.971679
LeftShoulder -8.536526 24.547593 7.810230
LeftArm 31.982344 44.195387 -57.166091
LeftForeArm -1.668745 -0.000000 25.478321
LeftHand -25.669065 -0.000000 -0.492910
LeftHandThumb1 -26.253704 0.000000 33.147579
RightShoulder -16.723028 6.046775 -23.149099
RightArm -17.170286 -47.682633 97.706205
RightForeArm -13.925795 -0.000000 28.954766
RightHand -4.233619 -0.000000 13.639689
RightHandThumb1 -24.326973 -0.000000 -32.862282
LeftUpLeg 7.476116 2.538206 0.713018
LeftLeg 29.457427 -0.000000 -0.000000
LeftFoot 28.009753 16.823485 354.596066
LeftToeBase -21.886024 -0.000000 0.000000
RightUpLeg -14.594848 -14.149581 3.582202
RightLeg 8.684379 -0.000000 -0.000000
RightFoot -3.862630 -3.621263 -9.192206
RightToeBase -0.111982 -0.000000 0.000000
200
root -35.531833 32.680938 -0.488728 -356.390504 -74.042502 3.939472
Spine -6.116549 2.554427 3.525708
Head -12.714178 1.993977 2.755798
LeftShoulder -8.702271 24.588101 7.452815
LeftArm 32.077158 43.686745 -57.364426
LeftForeArm -1.811684 -0.000000 25.472464
LeftHand -25.903631 0.000000 -0.140888
LeftHandThumb1 -26.253704 0.000000 33.147579
RightShoulder -16.699983 6.021890 -23.009753
RightArm -16.860339 -48.105122 97.488456
RightForeArm -13.919345 -0.000000 29.367909
RightHand -4.211585 -0.000000 13.501705
RightHandThumb1 -24.326973 -0.000000 -32.862282
LeftUpLeg 7.589948 2.847973 1.049055
LeftLeg 29.073392 -0.000000 -0.000000
LeftFoot 28.807263 17.678020 354.489898
LeftToeBase -21.405802 -0.000000 0.000000
RightUpLeg -14.542483 -14.387571 3.472239
RightLeg 9.315795 -0.000000 -0.000000
RightFoot -4.163768 -4.592184 -9.287653
RightToeBase -0.815680 -0.000000 0.000000
201
root -35.702991 32.704765 -0.505946 -356.563252 -72.825588 4.207522
Spine -6.158346 2.511821 3.400615
Head -12.732803 1.990813 2.633598
LeftShoulder -8.781544 24.481129 7.184092
LeftArm 32.174103 43.298777 -57.662962
LeftForeArm -1.923682 -0.000000 25.094337
LeftHand -25.930070 -0.000000 -0.134674
LeftHandThumb1 -26.253704 0.000000 33.147579
RightShoulder -16.606395 6.077881 -22.889451
RightArm -16.600252 -48.606667 97.362567
RightForeArm -13.482433 -0.000000 29.612542
RightHand -4.057433 0.000000 13.871599
RightHandThumb1 -24.326973 -0.000000 -32.862282
LeftUpLeg 7.601419 2.987788 1.400649
LeftLeg 28.736358 -0.000000 -0.000000
LeftFoot 29.331410 18.779703 354.030944
LeftToeBase -22.358490 -0.000000 0.000000
RightUpLeg -14.530915 -14.494861 3.334365
RightLeg 9.989820 -0.000000 -0.000000
RightFoot -4.573633 -5.365181 -9.164688
RightToeBase -0.413427 -0.000000 0.000000
202
root -35.867256 32.728614 -0.521768 -356.853052 -71.530768 4.612444
Spine -6.203019 2.439220 3.186435
Head -12.751535 1.932282 2.564651
LeftShoulder -8.888912 24.360708 6.926858
LeftArm 32.268187 42.915032 -58.031078
LeftForeArm -2.282046 -0.000000 24.723331
LeftHand -26.230562 -0.000000 0.221690
LeftHandThumb1 -26.253704 0.000000 33.147579
RightShoulder -16.535258 6.107091 -22.714370
RightArm -16.350975 -49.075148 97.260323
RightForeArm -12.633963 -0.000000 29.810347
RightHand -3.946078 0.000000 13.521005
RightHandThumb1 -24.326973 -0.000000 -32.862282
LeftUpLeg 7.535531 3.083223 1.680172
LeftLeg 28.556297 -0.000000 -0.000000
LeftFoot 29.489645 19.264741 354.207617
LeftToeBase -21.526784 -0.000000 0.000000
RightUpLeg -14.499586 -14.643148 3.151043
RightLeg 10.522492 -0.000000 -0.000000
RightFoot -4.756635 -6.399377 -9.318816
RightToeBase -0.715810 -0.000000 0.000000
203
root -36.016111 32.751793 -0.546366 -356.906674 -70.189077 4.827763
Spine -6.233495 2.385150 3.027623
Head -12.870470 2.002346 2.566266
LeftShoulder -9.033759 24.197639 6.696984
LeftArm 32.489526 42.632774 -58.377741
LeftForeArm -2.780076 -0.000000 24.290238
LeftHand -26.179187 -0.000000 0.649097
LeftHandThumb1 -26.253704 0.000000 33.147579
RightShoulder -16.477233 6.155786 -22.574031
RightArm -16.077125 -49.244544 97.099874
RightForeArm -12.494837 -0.000000 30.072236
RightHand -3.873393 -0.000000 13.535366
RightHandThumb1 -24.326973 -0.000000 -32.862282
LeftUpLeg 7.376892 3.088776 2.012486
LeftLeg 28.404995 -0.000000 -0.000000
LeftFoot 29.710580 20.099709 353.918301
LeftToeBase -19.148979 -0.000000 0.000000
RightUpLeg -14.537962 -14.749439 3.038289
RightLeg 10.964960 -0.000000 -0.000000
RightFoot -4.845137 -7.707098 -9.196105
RightToeBase -0.966327 -0.000000 0.000000
